<svg class="icon" viewBox="0 0 1024 1024" xmlns="http://www.w3.org/2000/svg" width="16" height="16"><defs><style/></defs><path d="M320 128H64c-38.4 0-64-25.6-64-64S25.6 0 64 0h256c38.4 0 64 25.6 64 64s-25.6 64-64 64z"/><path d="M0 320V64C0 25.6 25.6 0 64 0s64 25.6 64 64v256c0 38.4-25.6 64-64 64S0 358.4 0 320zM0 960V704c0-38.4 25.6-64 64-64s64 25.6 64 64v256c0 38.4-25.6 64-64 64S0 998.4 0 960z"/><path d="M320 1024H64c-38.4 0-64-25.6-64-64s25.6-64 64-64h256c38.4 0 64 25.6 64 64s-25.6 64-64 64zM704 128h256c38.4 0 64-25.6 64-64S998.4 0 960 0H704c-38.4 0-64 25.6-64 64s25.6 64 64 64z"/><path d="M1024 320V64c0-38.4-25.6-64-64-64s-64 25.6-64 64v256c0 38.4 25.6 64 64 64s64-25.6 64-64zM1024 960V704c0-38.4-25.6-64-64-64s-64 25.6-64 64v256c0 38.4 25.6 64 64 64s64-25.6 64-64z"/><path d="M704 1024h256c38.4 0 64-25.6 64-64s-25.6-64-64-64H704c-38.4 0-64 25.6-64 64s25.6 64 64 64z"/></svg>